<?xml version="1.0" encoding="UTF-8" standalone="no"?>
<!DOCTYPE svg PUBLIC "-//W3C//DTD SVG 1.1//EN"
 "http://www.w3.org/Graphics/SVG/1.1/DTD/svg11.dtd">
<!-- Generated by graphviz version 2.43.0 (0)
 -->
<!-- Title: BFF_API_Relationship Pages: 1 -->
<svg width="562pt" height="180pt"
 viewBox="0.00 0.00 562.00 180.00" xmlns="http://www.w3.org/2000/svg" xmlns:xlink="http://www.w3.org/1999/xlink">
<g id="graph0" class="graph" transform="scale(1 1) rotate(0) translate(4 176)">
<title>BFF_API_Relationship</title>
<polygon fill="#343541" stroke="transparent" points="-4,4 -4,-176 558,-176 558,4 -4,4"/>
<!-- web -->
<g id="node1" class="node">
<title>web</title>
<path fill="#fdfd96" stroke="grey" d="M79,-104C79,-104 12,-104 12,-104 6,-104 0,-98 0,-92 0,-92 0,-80 0,-80 0,-74 6,-68 12,-68 12,-68 79,-68 79,-68 85,-68 91,-74 91,-80 91,-80 91,-92 91,-92 91,-98 85,-104 79,-104"/>
<text text-anchor="middle" x="45.5" y="-82.3" font-family="Helvetica,sans-Serif" font-size="14.00" fill="#343541">Web Client</text>
</g>
<!-- bff -->
<g id="node2" class="node">
<title>bff</title>
<path fill="#b4d7a8" stroke="grey" d="M384,-104C384,-104 194,-104 194,-104 188,-104 182,-98 182,-92 182,-92 182,-80 182,-80 182,-74 188,-68 194,-68 194,-68 384,-68 384,-68 390,-68 396,-74 396,-80 396,-80 396,-92 396,-92 396,-98 390,-104 384,-104"/>
<text text-anchor="middle" x="289" y="-82.3" font-family="Helvetica,sans-Serif" font-size="14.00" fill="#343541">BFF (Backend for Frontends)</text>
</g>
<!-- web&#45;&gt;bff -->
<g id="edge1" class="edge">
<title>web&#45;&gt;bff</title>
<path fill="none" stroke="#aaaaaa" d="M91.08,-86C113.94,-86 142.95,-86 171.63,-86"/>
<polygon fill="#aaaaaa" stroke="#aaaaaa" points="171.76,-89.5 181.76,-86 171.76,-82.5 171.76,-89.5"/>
<text text-anchor="middle" x="136.5" y="-89.4" font-family="Helvetica,sans-Serif" font-size="12.00" fill="#eeeeee">requests</text>
</g>
<!-- bff&#45;&gt;web -->
<g id="edge8" class="edge">
<title>bff&#45;&gt;web</title>
<path fill="none" stroke="#aaaaaa" d="M182.31,-67.98C158.18,-66.08 132.67,-65.84 109,-69 106.46,-69.34 103.89,-69.75 101.29,-70.22"/>
<polygon fill="#aaaaaa" stroke="#aaaaaa" points="100.35,-66.84 91.27,-72.29 101.77,-73.7 100.35,-66.84"/>
<text text-anchor="middle" x="136.5" y="-72.4" font-family="Helvetica,sans-Serif" font-size="12.00" fill="#eeeeee">responds</text>
</g>
<!-- api1 -->
<g id="node3" class="node">
<title>api1</title>
<path fill="#aec6cf" stroke="grey" d="M542,-171C542,-171 512,-171 512,-171 506,-171 500,-165 500,-159 500,-159 500,-147 500,-147 500,-141 506,-135 512,-135 512,-135 542,-135 542,-135 548,-135 554,-141 554,-147 554,-147 554,-159 554,-159 554,-165 548,-171 542,-171"/>
<text text-anchor="middle" x="527" y="-149.3" font-family="Helvetica,sans-Serif" font-size="14.00" fill="#343541">API 1</text>
</g>
<!-- bff&#45;&gt;api1 -->
<g id="edge2" class="edge">
<title>bff&#45;&gt;api1</title>
<path fill="none" stroke="#aaaaaa" d="M314.08,-104.03C337.99,-120.73 376.42,-144.37 414,-154 438.72,-160.33 467.52,-159.91 489.73,-157.99"/>
<polygon fill="#aaaaaa" stroke="#aaaaaa" points="490.14,-161.47 499.74,-156.99 489.44,-154.51 490.14,-161.47"/>
<text text-anchor="middle" x="448" y="-162.4" font-family="Helvetica,sans-Serif" font-size="12.00" fill="#eeeeee">aggregates</text>
</g>
<!-- api2 -->
<g id="node4" class="node">
<title>api2</title>
<path fill="#aec6cf" stroke="grey" d="M542,-108C542,-108 512,-108 512,-108 506,-108 500,-102 500,-96 500,-96 500,-84 500,-84 500,-78 506,-72 512,-72 512,-72 542,-72 542,-72 548,-72 554,-78 554,-84 554,-84 554,-96 554,-96 554,-102 548,-108 542,-108"/>
<text text-anchor="middle" x="527" y="-86.3" font-family="Helvetica,sans-Serif" font-size="14.00" fill="#343541">API 2</text>
</g>
<!-- bff&#45;&gt;api2 -->
<g id="edge3" class="edge">
<title>bff&#45;&gt;api2</title>
<path fill="none" stroke="#aaaaaa" d="M396.26,-87.8C429.66,-88.37 464.33,-88.95 489.42,-89.38"/>
<polygon fill="#aaaaaa" stroke="#aaaaaa" points="489.49,-92.88 499.55,-89.55 489.61,-85.88 489.49,-92.88"/>
<text text-anchor="middle" x="448" y="-92.4" font-family="Helvetica,sans-Serif" font-size="12.00" fill="#eeeeee">aggregates</text>
</g>
<!-- api3 -->
<g id="node5" class="node">
<title>api3</title>
<path fill="#aec6cf" stroke="grey" d="M542,-36C542,-36 512,-36 512,-36 506,-36 500,-30 500,-24 500,-24 500,-12 500,-12 500,-6 506,0 512,0 512,0 542,0 542,0 548,0 554,-6 554,-12 554,-12 554,-24 554,-24 554,-30 548,-36 542,-36"/>
<text text-anchor="middle" x="527" y="-14.3" font-family="Helvetica,sans-Serif" font-size="14.00" fill="#343541">API 3</text>
</g>
<!-- bff&#45;&gt;api3 -->
<g id="edge4" class="edge">
<title>bff&#45;&gt;api3</title>
<path fill="none" stroke="#aaaaaa" d="M349.53,-67.97C369.95,-61.86 392.95,-55.05 414,-49 439.28,-41.73 467.85,-33.83 489.81,-27.82"/>
<polygon fill="#aaaaaa" stroke="#aaaaaa" points="490.98,-31.13 499.71,-25.12 489.14,-24.38 490.98,-31.13"/>
<text text-anchor="middle" x="448" y="-52.4" font-family="Helvetica,sans-Serif" font-size="12.00" fill="#eeeeee">aggregates</text>
</g>
<!-- api1&#45;&gt;bff -->
<g id="edge5" class="edge">
<title>api1&#45;&gt;bff</title>
<path fill="none" stroke="#aaaaaa" d="M499.61,-142.97C493.84,-140.9 487.74,-138.8 482,-137 446.96,-126 407.85,-115.33 374.12,-106.61"/>
<polygon fill="#aaaaaa" stroke="#aaaaaa" points="374.85,-103.19 364.29,-104.09 373.11,-109.97 374.85,-103.19"/>
<text text-anchor="middle" x="448" y="-140.4" font-family="Helvetica,sans-Serif" font-size="12.00" fill="#eeeeee">responds</text>
</g>
<!-- api2&#45;&gt;bff -->
<g id="edge6" class="edge">
<title>api2&#45;&gt;bff</title>
<path fill="none" stroke="#aaaaaa" d="M499.58,-76.54C493.91,-74.25 487.87,-72.21 482,-71 454.44,-65.3 424.25,-64.97 396.14,-67.1"/>
<polygon fill="#aaaaaa" stroke="#aaaaaa" points="395.54,-63.64 385.88,-67.99 396.15,-70.61 395.54,-63.64"/>
<text text-anchor="middle" x="448" y="-74.4" font-family="Helvetica,sans-Serif" font-size="12.00" fill="#eeeeee">responds</text>
</g>
<!-- api3&#45;&gt;bff -->
<g id="edge7" class="edge">
<title>api3&#45;&gt;bff</title>
<path fill="none" stroke="#aaaaaa" d="M499.7,-12.75C476.69,-9.16 442.56,-6.31 414,-14 379.53,-23.28 344.77,-44.75 320.86,-61.85"/>
<polygon fill="#aaaaaa" stroke="#aaaaaa" points="318.57,-59.19 312.57,-67.92 322.7,-64.84 318.57,-59.19"/>
<text text-anchor="middle" x="448" y="-17.4" font-family="Helvetica,sans-Serif" font-size="12.00" fill="#eeeeee">responds</text>
</g>
</g>
</svg>
